<?xml version="1.0"?>

<svg width="640" height="480" xmlns="http://www.w3.org/2000/svg" xmlns:svg="http://www.w3.org/2000/svg">

<!-- Created with SVG-edit - http://svg-edit.googlecode.com/ -->

<g>

<title>Layer 1</title>

<path fill="#000000" stroke-width="5" d="m164,212c63.666672,-73.666687 99.333344,-19.333328 211,-43c-90.333344,-4.666672 -173.666672,-67.333313 -211,43z" id="svg_1" stroke="#000000"/>

<path fill="#000000" stroke="null" stroke-width="5" stroke-dasharray="null" stroke-linejoin="null" stroke-linecap="null" d="m195.020721,217.128418c-1.747253,-18.471161 16.121368,-35.256989 39.92868,-37.509033c0.951813,11.936981 1.584381,22.335831 3.712646,31.414368c11.628235,-8.921448 15.252197,-10.163147 27.686737,-24.507248c8.369141,5.311768 13.980743,13.213928 14.854401,22.449509c1.747253,18.471191 -16.121338,35.257004 -39.92865,37.509033c-23.807281,2.252045 -44.506531,-10.885437 -46.253799,-29.356628l-0.000015,0z" id="svg_10"/>

<path fill="#000000" stroke="null" stroke-width="5" stroke-dasharray="null" stroke-linejoin="null" stroke-linecap="null" d="m196.567108,264.776093l139.253784,-59.552216c-46.417938,19.850739 -92.835861,39.701477 -139.253784,59.552216z" id="svg_12"/>

</g>

</svg>

